<?xml version="1.0" encoding="UTF-8"?>
<svg id="Calque_1" data-name="Calque 1" xmlns="http://www.w3.org/2000/svg" viewBox="0 0 122.26 127.26">
  <defs>
    <style>
      .cls-1 {
        stroke-width: 0px;
      }
    </style>
  </defs>
  <path class="cls-1" d="m61.63,127.26c-2.24,0-4.47-.52-6.51-1.57l-33.67-17.24c-3.21-1.64-5.48-4.75-6.07-8.3L.1,8.48c-.35-2.12.24-4.27,1.63-5.91C3.11.94,5.14,0,7.29,0h106.05c2.63,0,5.11,1.15,6.81,3.15,1.7,2,2.42,4.64,1.99,7.23l-14.61,87.65c-.81,4.88-3.92,9.16-8.31,11.45l-30.98,16.16c-2.07,1.08-4.34,1.62-6.61,1.62ZM7.29,1c-1.85,0-3.6.81-4.8,2.22-1.2,1.41-1.71,3.27-1.4,5.1l15.28,91.67c.54,3.25,2.61,6.08,5.54,7.58l33.67,17.24c3.83,1.96,8.39,1.94,12.21-.05l30.98-16.16c4.11-2.14,7.02-6.15,7.78-10.73l14.61-87.65c.38-2.3-.26-4.64-1.77-6.42-1.51-1.78-3.71-2.8-6.04-2.8H7.29Z"/>
  <g>
    <path class="cls-1" d="m16.28,56.07v-3.27c0-1.68.47-3.02,1.41-4.03l18.25-19.74c.5-.6.99-.91,1.49-.91.59,0,1.12.42,1.59,1.26s.7,1.87.7,3.08c0,1.58-.34,2.74-1.02,3.48l-17.07,18.47,17.08,18.36c.67.81,1.01,2,1.01,3.59,0,1.21-.23,2.24-.7,3.08s-1,1.26-1.59,1.26c-.46,0-.96-.3-1.49-.91l-18.26-19.68c-.94-.94-1.4-2.28-1.4-4.03Z"/>
    <path class="cls-1" d="m73.64,28.36l-18.82,58.32c-.29.88-.76,1.32-1.4,1.32-.61,0-1.17-.38-1.69-1.13s-.79-1.72-.79-2.9c0-1.04.18-2.15.55-3.33l18.83-58.26c.31-.92.8-1.38,1.46-1.38.59,0,1.14.36,1.66,1.08.52.72.78,1.67.78,2.85,0,1.11-.19,2.25-.58,3.43Z"/>
    <path class="cls-1" d="m108.54,52.78v3.29c0,1.72-.45,3.07-1.34,4.04l-18.27,19.67c-.53.6-1.04.91-1.52.91-.59,0-1.12-.4-1.59-1.21-.47-.81-.7-1.83-.7-3.08,0-1.61.35-2.79,1.04-3.53l17.05-18.47-17.05-18.35c-.7-.81-1.04-2.02-1.04-3.64,0-1.25.23-2.28.7-3.08s1-1.21,1.59-1.21c.46,0,.97.3,1.52.91l18.26,19.72c.9.98,1.35,2.33,1.35,4.04Z"/>
  </g>
</svg>